# xmcd
#
# Track frame offsets:
#	225
#	17400
#	34020
#	48771
#	60943
#	80115
#	97258
#	113158
#	130755
#	145591
#	160741
#	173191
#
# Disc length: 2553 seconds
#
# Revision: 0
# Processed by: cddbd v1.5.1PL0 Copyright (c) Steve Scherf et al.
# Submitted via: audiograbber 1.83.01
#
DISCID=9109f60c
DTITLE=Ruta 5 - Vicios perdidos
DYEAR=2004
DGENRE=Rancheras
TTITLE0=Vicios perdidos
TTITLE1=Tu compañero
TTITLE2=El milagrito
TTITLE3=Prieta casada
TTITLE4=Yo quiero hablarte
TTITLE5=Mas que tu amigo
TTITLE6=Gallito feliz
TTITLE7=Rosita de olivo
TTITLE8=La roncona
TTITLE9=La margarita
TTITLE10=La venia bendita
TTITLE11=Los sabanales
EXTD=
EXTT0=
EXTT1=
EXTT2=
EXTT3=
EXTT4=
EXTT5=
EXTT6=
EXTT7=
EXTT8=
EXTT9=
EXTT10=
EXTT11=
PLAYORDER=
